<svg width="896" height="726" viewBox="0 0 896 726" fill="none" xmlns="http://www.w3.org/2000/svg">
<path d="M305.438 46.865C136.685 46.865 0 177.002 0 337.671C0 443.95 59.9309 536.881 149.126 587.601L437.215 75.395C397.437 57.0424 352.576 46.865 305.438 46.865Z" fill="#FCA311"/>
<path d="M437.391 75.395L290.718 336.17L554.449 506.015C590.022 458.465 610.875 400.404 610.875 337.504C610.875 222.05 539.904 122.111 437.391 75.395Z" fill="#48474F"/>
<path d="M149.126 587.601C194.863 613.628 248.31 628.477 305.262 628.477C326.816 628.477 347.669 626.308 367.997 622.304L290.542 336.169L149.126 587.601Z" fill="#0664AE"/>
<path d="M554.449 506.015L290.542 336.169L367.997 622.304C444.576 607.122 510.64 564.577 554.449 506.015Z" fill="#E5E5E5"/>
<path d="M296.676 199.359C216.417 199.359 151.404 261.257 151.404 337.671C151.404 388.224 179.968 432.438 222.375 456.63L359.41 212.873C340.485 204.197 319.106 199.359 296.676 199.359Z" fill="#EF940F"/>
<path d="M359.41 212.873L289.666 337.004L415.136 417.923C431.958 395.232 441.947 367.703 441.947 337.838C441.947 282.613 408.301 235.063 359.41 212.873Z" fill="#3A3A3F"/>
<path d="M222.375 456.463C244.105 468.809 269.514 475.983 296.676 475.983C306.839 475.983 316.828 474.982 326.466 472.98L289.666 336.837L222.375 456.463Z" fill="#035993"/>
<path d="M415.136 417.755L289.666 336.837L326.466 472.98C362.915 465.806 394.283 445.618 415.136 417.755Z" fill="#D3D3D3"/>
<path fill-rule="evenodd" clip-rule="evenodd" d="M238.147 14.2219H670.625V12.1902H236.725V12.1904H236.013V70.4329H238.147V14.2219Z" fill="#FBA211"/>
<path d="M724.856 38.5755C734.644 38.5755 740.96 33.4827 740.96 25.41C740.96 17.7707 734.928 13.5448 728.043 13.5448C724.97 13.5448 722.523 14.4116 720.645 15.7119L720.873 8.93956H738.798V0.650151H711.938L711.369 21.0757L717.8 23.4596C719.791 21.9967 722.181 21.1299 724.97 21.1299C728.839 21.1299 731.286 22.9719 731.286 25.7351C731.286 28.3899 728.953 30.557 724.856 30.557C721.328 30.557 717.8 28.8775 714.897 26.3852L709.321 32.9409C713.077 36.4084 718.141 38.5755 724.856 38.5755Z" fill="#FBA211"/>
<path d="M763.382 38.5213C773.966 38.5213 781.364 30.557 781.364 19.2336C781.364 7.96433 773.966 0 763.382 0C752.854 0 745.4 7.96433 745.4 19.2336C745.4 30.557 752.854 38.5213 763.382 38.5213ZM763.382 30.1236C758.716 30.1236 755.415 25.5725 755.415 19.2336C755.415 12.8946 758.716 8.39776 763.382 8.39776C768.105 8.39776 771.405 12.8946 771.405 19.2336C771.405 25.5725 768.105 30.1236 763.382 30.1236Z" fill="#FBA211"/>
<path d="M795.528 19.4503C801.503 19.4503 805.544 15.2785 805.544 9.8606C805.544 4.60523 801.617 0.270899 795.528 0.270899C789.553 0.270899 785.57 4.55105 785.57 9.8606C785.57 15.2785 789.61 19.4503 795.528 19.4503ZM790.805 37.8712H797.577L824.891 0.650151H818.176L790.805 37.8712ZM795.528 14.1949C793.48 14.1949 791.829 12.5154 791.829 9.8606C791.829 7.15164 793.423 5.52627 795.528 5.52627C797.691 5.52627 799.284 7.20582 799.284 9.8606C799.284 12.5696 797.691 14.1949 795.528 14.1949ZM820.111 38.4672C825.972 38.4672 830.07 34.2412 830.07 28.8775C830.07 23.5679 826.143 19.2336 820.111 19.2336C814.136 19.2336 810.096 23.4596 810.096 28.8775C810.096 34.187 814.079 38.4672 820.111 38.4672ZM820.111 33.2118C817.949 33.2118 816.356 31.5322 816.356 28.8775C816.356 26.1143 817.892 24.5431 820.111 24.5431C822.217 24.5431 823.867 26.2227 823.867 28.8775C823.867 31.5864 822.274 33.2118 820.111 33.2118Z" fill="#FBA211"/>
<path d="M723.925 335.248H734.037V328.01H739.182V320.165H734.037V297.349H721.737L703.346 320.828L704.233 328.01H723.925V335.248ZM713.813 320.165L723.925 307.127V320.165H713.813Z" fill="#848293"/>
<path d="M762.08 335.91C773.08 335.91 780.767 327.789 780.767 316.243C780.767 304.752 773.08 296.631 762.08 296.631C751.14 296.631 743.394 304.752 743.394 316.243C743.394 327.789 751.14 335.91 762.08 335.91ZM762.08 327.347C757.231 327.347 753.802 322.707 753.802 316.243C753.802 309.779 757.231 305.194 762.08 305.194C766.989 305.194 770.419 309.779 770.419 316.243C770.419 322.707 766.989 327.347 762.08 327.347Z" fill="#848293"/>
<path d="M795.487 316.464C801.696 316.464 805.895 312.21 805.895 306.685C805.895 301.327 801.814 296.907 795.487 296.907C789.278 296.907 785.138 301.271 785.138 306.685C785.138 312.21 789.337 316.464 795.487 316.464ZM790.579 335.248H797.616L826.001 297.294H819.023L790.579 335.248ZM795.487 311.105C793.358 311.105 791.643 309.392 791.643 306.685C791.643 303.923 793.299 302.266 795.487 302.266C797.734 302.266 799.39 303.978 799.39 306.685C799.39 309.448 797.734 311.105 795.487 311.105ZM821.033 335.855C827.124 335.855 831.382 331.546 831.382 326.077C831.382 320.663 827.302 316.243 821.033 316.243C814.824 316.243 810.625 320.552 810.625 326.077C810.625 331.491 814.765 335.855 821.033 335.855ZM821.033 330.496C818.786 330.496 817.13 328.784 817.13 326.077C817.13 323.259 818.727 321.657 821.033 321.657C823.221 321.657 824.936 323.37 824.936 326.077C824.936 328.839 823.28 330.496 821.033 330.496Z" fill="#848293"/>
<path d="M719.046 556.69C728.937 556.69 735.321 551.468 735.321 543.19C735.321 535.356 729.225 531.022 722.266 531.022C719.161 531.022 716.688 531.911 714.79 533.245L715.02 526.3H733.136V517.799H705.991L705.416 538.745L711.915 541.189C713.927 539.689 716.343 538.8 719.161 538.8C723.071 538.8 725.544 540.689 725.544 543.523C725.544 546.245 723.186 548.468 719.046 548.468C715.48 548.468 711.915 546.745 708.982 544.19L703.346 550.912C707.141 554.468 712.26 556.69 719.046 556.69Z" fill="#E4E4E4"/>
<path d="M749.527 537.078C755.566 537.078 759.649 532.8 759.649 527.244C759.649 521.855 755.681 517.41 749.527 517.41C743.489 517.41 739.463 521.8 739.463 527.244C739.463 532.8 743.546 537.078 749.527 537.078ZM744.754 555.968H751.597L779.202 517.799H772.416L744.754 555.968ZM749.527 531.689C747.457 531.689 745.789 529.967 745.789 527.244C745.789 524.466 747.399 522.8 749.527 522.8C751.712 522.8 753.323 524.522 753.323 527.244C753.323 530.022 751.712 531.689 749.527 531.689ZM774.371 556.579C780.295 556.579 784.435 552.246 784.435 546.745C784.435 541.301 780.467 536.856 774.371 536.856C768.333 536.856 764.25 541.189 764.25 546.745C764.25 552.19 768.275 556.579 774.371 556.579ZM774.371 551.19C772.186 551.19 770.576 549.468 770.576 546.745C770.576 543.912 772.128 542.301 774.371 542.301C776.499 542.301 778.167 544.023 778.167 546.745C778.167 549.523 776.557 551.19 774.371 551.19Z" fill="#E4E4E4"/>
<path d="M710.428 66.3525H715.852C717.82 66.3525 719.228 65.1205 719.228 63.3605C719.228 62.1445 718.492 61.1525 717.212 60.5285C718.204 59.9685 718.78 59.2485 718.78 58.0965C718.78 56.4965 717.484 55.3605 715.644 55.3605H710.428V66.3525ZM712.044 59.9365V56.7845H715.244C716.348 56.7845 717.132 57.4565 717.132 58.3685C717.132 59.2805 716.348 59.9365 715.244 59.9365H712.044ZM712.044 64.9285V61.3125H715.484C716.716 61.3125 717.58 62.0645 717.58 63.1205C717.58 64.1765 716.716 64.9285 715.484 64.9285H712.044ZM726.9 58.0805V63.4405C726.772 64.4165 725.78 65.1685 724.628 65.1685C723.508 65.1685 722.724 64.3045 722.724 63.0725V58.0805H721.172V63.3445C721.172 65.2165 722.452 66.5445 724.276 66.5445C725.396 66.5445 726.404 65.9685 726.9 65.1525V66.3525H728.484V58.0805H726.9ZM732.446 59.6645V58.0805H730.862V66.3525H732.446V61.6485C732.59 60.2085 733.806 59.2645 735.518 59.2645V57.8885C734.094 57.8885 732.974 58.5765 732.446 59.6645ZM741.271 57.8885C740.151 57.8885 739.143 58.4645 738.647 59.2805V58.0805H737.063V66.3525H738.647V60.9925C738.775 60.0165 739.767 59.2645 740.919 59.2645C742.039 59.2645 742.823 60.1285 742.823 61.3605V66.3525H744.375V61.0885C744.375 59.2165 743.095 57.8885 741.271 57.8885ZM754.691 57.8885C753.779 57.8885 752.739 58.1285 751.555 58.7205L752.131 59.8885C752.851 59.5205 753.651 59.2005 754.467 59.2005C756.115 59.2005 756.595 60.3045 756.595 61.3445V61.6005C755.795 61.3285 754.915 61.1525 754.099 61.1525C752.275 61.1525 750.787 62.2565 750.787 63.9045C750.787 65.5205 752.083 66.5445 753.843 66.5445C754.851 66.5445 755.987 66.0805 756.595 65.2165V66.3525H758.147V61.3445C758.147 59.2965 756.915 57.8885 754.691 57.8885ZM754.147 65.2965C753.107 65.2965 752.307 64.7525 752.307 63.8565C752.307 62.9605 753.235 62.3365 754.339 62.3365C755.155 62.3365 755.923 62.4485 756.595 62.6565V63.7605C756.323 64.7845 755.171 65.2965 754.147 65.2965ZM760.438 66.3525H762.006V55.1685H760.438V66.3525ZM764.313 66.3525H765.881V55.1685H764.313V66.3525ZM772.108 66.5445C774.46 66.5445 776.444 64.5605 776.444 62.2085C776.444 59.8565 774.46 57.8885 772.108 57.8885C769.74 57.8885 767.74 59.8565 767.74 62.2085C767.74 64.5605 769.74 66.5445 772.108 66.5445ZM772.108 65.1685C770.588 65.1685 769.324 63.8245 769.324 62.2085C769.324 60.6085 770.588 59.2645 772.108 59.2645C773.596 59.2645 774.86 60.6085 774.86 62.2085C774.86 63.8245 773.596 65.1685 772.108 65.1685ZM782.202 66.5445C783.434 66.5445 784.506 66.0325 785.306 65.2165L784.234 64.2405C783.722 64.8165 782.986 65.1685 782.218 65.1685C780.698 65.1685 779.45 63.8245 779.45 62.2085C779.45 60.6085 780.698 59.2645 782.202 59.2645C782.97 59.2645 783.69 59.6005 784.186 60.1605L785.258 59.1685C784.474 58.3845 783.402 57.8885 782.218 57.8885C779.85 57.8885 777.85 59.8565 777.85 62.2085C777.85 64.5605 779.85 66.5445 782.202 66.5445ZM790.473 57.8885C789.561 57.8885 788.521 58.1285 787.337 58.7205L787.913 59.8885C788.633 59.5205 789.433 59.2005 790.249 59.2005C791.897 59.2005 792.377 60.3045 792.377 61.3445V61.6005C791.577 61.3285 790.697 61.1525 789.881 61.1525C788.057 61.1525 786.569 62.2565 786.569 63.9045C786.569 65.5205 787.865 66.5445 789.625 66.5445C790.633 66.5445 791.769 66.0805 792.377 65.2165V66.3525H793.929V61.3445C793.929 59.2965 792.697 57.8885 790.473 57.8885ZM789.929 65.2965C788.889 65.2965 788.089 64.7525 788.089 63.8565C788.089 62.9605 789.017 62.3365 790.121 62.3365C790.937 62.3365 791.705 62.4485 792.377 62.6565V63.7605C792.105 64.7845 790.953 65.2965 789.929 65.2965ZM800.091 64.8645C799.915 65.0405 799.595 65.1685 799.243 65.1685C798.779 65.1685 798.395 64.7525 798.395 64.1765V59.4245H800.347V58.0805H798.395V55.8085H796.843V58.0805H795.595V59.4245H796.843V64.2885C796.843 65.6165 797.739 66.5445 799.019 66.5445C799.611 66.5445 800.219 66.3205 800.667 65.9525L800.091 64.8645ZM803.066 56.7045C803.578 56.7045 804.01 56.2565 804.01 55.7445C804.01 55.2485 803.578 54.8005 803.066 54.8005C802.522 54.8005 802.106 55.2485 802.106 55.7445C802.106 56.2565 802.522 56.7045 803.066 56.7045ZM802.266 66.3525H803.85V58.0805H802.266V66.3525ZM810.061 66.5445C812.413 66.5445 814.397 64.5605 814.397 62.2085C814.397 59.8565 812.413 57.8885 810.061 57.8885C807.693 57.8885 805.693 59.8565 805.693 62.2085C805.693 64.5605 807.693 66.5445 810.061 66.5445ZM810.061 65.1685C808.541 65.1685 807.277 63.8245 807.277 62.2085C807.277 60.6085 808.541 59.2645 810.061 59.2645C811.549 59.2645 812.813 60.6085 812.813 62.2085C812.813 63.8245 811.549 65.1685 810.061 65.1685ZM820.459 57.8885C819.339 57.8885 818.331 58.4645 817.835 59.2805V58.0805H816.251V66.3525H817.835V60.9925C817.963 60.0165 818.955 59.2645 820.107 59.2645C821.227 59.2645 822.011 60.1285 822.011 61.3605V66.3525H823.563V61.0885C823.563 59.2165 822.283 57.8885 820.459 57.8885Z" fill="#F5F5F5"/>
<path d="M703.123 367.101H704.739V363.277H707.747C710.067 363.277 711.827 361.789 711.827 359.693C711.827 357.597 710.067 356.109 707.747 356.109H703.123V367.101ZM704.739 361.773V357.613H707.523C709.107 357.613 710.179 358.397 710.179 359.693C710.179 360.989 709.107 361.773 707.523 361.773H704.739ZM715.13 360.413V358.829H713.546V367.101H715.13V362.397C715.274 360.957 716.49 360.013 718.202 360.013V358.637C716.778 358.637 715.658 359.325 715.13 360.413ZM723.539 365.885C722.115 365.885 721.107 364.893 720.899 363.517H727.411C727.411 360.557 725.955 358.637 723.427 358.637C721.139 358.637 719.299 360.461 719.299 362.941C719.299 365.485 721.251 367.293 723.555 367.293C724.723 367.293 726.163 366.797 726.899 366.013L725.907 364.989C725.411 365.501 724.403 365.885 723.539 365.885ZM723.491 360.045C724.915 360.045 725.699 360.973 725.875 362.253H720.915C721.171 360.909 722.211 360.045 723.491 360.045ZM732.239 367.293C734.047 367.293 735.375 366.301 735.375 364.733C735.375 363.085 733.919 362.637 732.559 362.237C731.167 361.805 730.655 361.613 730.655 360.973C730.655 360.349 731.295 359.997 732.111 359.997C732.831 359.997 733.663 360.269 734.463 360.765L735.167 359.597C734.271 359.005 733.183 358.637 732.111 358.637C730.351 358.637 729.087 359.629 729.103 361.149C729.103 362.493 730.047 363.037 731.951 363.565C732.975 363.853 733.823 364.093 733.823 364.861C733.823 365.501 733.183 365.933 732.255 365.933C731.279 365.933 730.335 365.565 729.455 364.925L728.703 366.061C729.695 366.861 731.023 367.293 732.239 367.293ZM740.688 358.637C739.776 358.637 738.736 358.877 737.552 359.469L738.128 360.637C738.848 360.269 739.648 359.949 740.464 359.949C742.112 359.949 742.592 361.053 742.592 362.093V362.349C741.792 362.077 740.912 361.901 740.096 361.901C738.272 361.901 736.784 363.005 736.784 364.653C736.784 366.269 738.08 367.293 739.84 367.293C740.848 367.293 741.984 366.829 742.592 365.965V367.101H744.144V362.093C744.144 360.045 742.912 358.637 740.688 358.637ZM740.144 366.045C739.104 366.045 738.304 365.501 738.304 364.605C738.304 363.709 739.232 363.085 740.336 363.085C741.152 363.085 741.92 363.197 742.592 363.405V364.509C742.32 365.533 741.168 366.045 740.144 366.045ZM746.434 367.101H748.002V355.917H746.434V367.101ZM754.101 365.885C752.677 365.885 751.669 364.893 751.461 363.517H757.973C757.973 360.557 756.517 358.637 753.989 358.637C751.701 358.637 749.861 360.461 749.861 362.941C749.861 365.485 751.813 367.293 754.117 367.293C755.285 367.293 756.725 366.797 757.461 366.013L756.469 364.989C755.973 365.501 754.965 365.885 754.101 365.885ZM754.053 360.045C755.477 360.045 756.261 360.973 756.437 362.253H751.477C751.733 360.909 752.773 360.045 754.053 360.045ZM767.86 358.637C766.948 358.637 765.908 358.877 764.724 359.469L765.3 360.637C766.02 360.269 766.82 359.949 767.636 359.949C769.284 359.949 769.764 361.053 769.764 362.093V362.349C768.964 362.077 768.084 361.901 767.268 361.901C765.444 361.901 763.956 363.005 763.956 364.653C763.956 366.269 765.252 367.293 767.012 367.293C768.02 367.293 769.156 366.829 769.764 365.965V367.101H771.316V362.093C771.316 360.045 770.084 358.637 767.86 358.637ZM767.316 366.045C766.276 366.045 765.476 365.501 765.476 364.605C765.476 363.709 766.404 363.085 767.508 363.085C768.324 363.085 769.092 363.197 769.764 363.405V364.509C769.492 365.533 768.34 366.045 767.316 366.045ZM773.606 367.101H775.174V355.917H773.606V367.101ZM777.481 367.101H779.049V355.917H777.481V367.101ZM785.276 367.293C787.628 367.293 789.612 365.309 789.612 362.957C789.612 360.605 787.628 358.637 785.276 358.637C782.908 358.637 780.908 360.605 780.908 362.957C780.908 365.309 782.908 367.293 785.276 367.293ZM785.276 365.917C783.756 365.917 782.492 364.573 782.492 362.957C782.492 361.357 783.756 360.013 785.276 360.013C786.764 360.013 788.028 361.357 788.028 362.957C788.028 364.573 786.764 365.917 785.276 365.917ZM795.37 367.293C796.602 367.293 797.674 366.781 798.474 365.965L797.402 364.989C796.89 365.565 796.154 365.917 795.386 365.917C793.866 365.917 792.618 364.573 792.618 362.957C792.618 361.357 793.866 360.013 795.37 360.013C796.138 360.013 796.858 360.349 797.354 360.909L798.426 359.917C797.642 359.133 796.57 358.637 795.386 358.637C793.018 358.637 791.018 360.605 791.018 362.957C791.018 365.309 793.018 367.293 795.37 367.293ZM803.641 358.637C802.729 358.637 801.689 358.877 800.505 359.469L801.081 360.637C801.801 360.269 802.601 359.949 803.417 359.949C805.065 359.949 805.545 361.053 805.545 362.093V362.349C804.745 362.077 803.865 361.901 803.049 361.901C801.225 361.901 799.737 363.005 799.737 364.653C799.737 366.269 801.033 367.293 802.793 367.293C803.801 367.293 804.937 366.829 805.545 365.965V367.101H807.097V362.093C807.097 360.045 805.865 358.637 803.641 358.637ZM803.097 366.045C802.057 366.045 801.257 365.501 801.257 364.605C801.257 363.709 802.185 363.085 803.289 363.085C804.105 363.085 804.873 363.197 805.545 363.405V364.509C805.273 365.533 804.121 366.045 803.097 366.045ZM813.26 365.613C813.084 365.789 812.764 365.917 812.412 365.917C811.948 365.917 811.564 365.501 811.564 364.925V360.173H813.516V358.829H811.564V356.557H810.012V358.829H808.764V360.173H810.012V365.037C810.012 366.365 810.908 367.293 812.188 367.293C812.78 367.293 813.388 367.069 813.836 366.701L813.26 365.613ZM816.234 357.453C816.746 357.453 817.178 357.005 817.178 356.493C817.178 355.997 816.746 355.549 816.234 355.549C815.69 355.549 815.274 355.997 815.274 356.493C815.274 357.005 815.69 357.453 816.234 357.453ZM815.434 367.101H817.018V358.829H815.434V367.101ZM823.229 367.293C825.581 367.293 827.565 365.309 827.565 362.957C827.565 360.605 825.581 358.637 823.229 358.637C820.861 358.637 818.861 360.605 818.861 362.957C818.861 365.309 820.861 367.293 823.229 367.293ZM823.229 365.917C821.709 365.917 820.445 364.573 820.445 362.957C820.445 361.357 821.709 360.013 823.229 360.013C824.717 360.013 825.981 361.357 825.981 362.957C825.981 364.573 824.717 365.917 823.229 365.917ZM833.627 358.637C832.507 358.637 831.499 359.213 831.003 360.029V358.829H829.419V367.101H831.003V361.741C831.131 360.765 832.123 360.013 833.275 360.013C834.395 360.013 835.179 360.877 835.179 362.109V367.101H836.731V361.837C836.731 359.965 835.451 358.637 833.627 358.637Z" fill="#F5F5F5"/>
<path d="M703.315 583.817H704.931V575.993L708.787 583.177L712.643 575.993V583.817H714.259V572.825H712.643L708.787 580.009L704.931 572.825H703.315V583.817ZM720.281 575.353C719.369 575.353 718.329 575.593 717.145 576.185L717.721 577.353C718.441 576.985 719.241 576.665 720.057 576.665C721.705 576.665 722.185 577.769 722.185 578.809V579.065C721.385 578.793 720.505 578.617 719.689 578.617C717.865 578.617 716.377 579.721 716.377 581.369C716.377 582.985 717.673 584.009 719.433 584.009C720.441 584.009 721.577 583.545 722.185 582.681V583.817H723.737V578.809C723.737 576.761 722.505 575.353 720.281 575.353ZM719.737 582.761C718.697 582.761 717.897 582.217 717.897 581.321C717.897 580.425 718.825 579.801 719.929 579.801C720.745 579.801 721.513 579.913 722.185 580.121V581.225C721.913 582.249 720.761 582.761 719.737 582.761ZM727.692 577.129V575.545H726.108V583.817H727.692V579.113C727.836 577.673 729.052 576.729 730.764 576.729V575.353C729.34 575.353 728.22 576.041 727.692 577.129ZM739.829 575.545H737.909L733.861 579.769V572.633H732.293V583.817H733.861V581.689L735.189 580.345L737.781 583.817H739.669L736.261 579.289L739.829 575.545ZM744.93 582.601C743.506 582.601 742.498 581.609 742.29 580.233H748.802C748.802 577.273 747.346 575.353 744.818 575.353C742.53 575.353 740.69 577.177 740.69 579.657C740.69 582.201 742.642 584.009 744.946 584.009C746.114 584.009 747.554 583.513 748.29 582.729L747.298 581.705C746.802 582.217 745.794 582.601 744.93 582.601ZM744.882 576.761C746.306 576.761 747.09 577.689 747.266 578.969H742.306C742.562 577.625 743.602 576.761 744.882 576.761ZM754.51 582.329C754.334 582.505 754.014 582.633 753.662 582.633C753.198 582.633 752.814 582.217 752.814 581.641V576.889H754.766V575.545H752.814V573.273H751.262V575.545H750.014V576.889H751.262V581.753C751.262 583.081 752.158 584.009 753.438 584.009C754.03 584.009 754.638 583.785 755.086 583.417L754.51 582.329ZM757.484 574.169C757.996 574.169 758.428 573.721 758.428 573.209C758.428 572.713 757.996 572.265 757.484 572.265C756.94 572.265 756.524 572.713 756.524 573.209C756.524 573.721 756.94 574.169 757.484 574.169ZM756.684 583.817H758.268V575.545H756.684V583.817ZM764.767 575.353C763.647 575.353 762.639 575.929 762.143 576.745V575.545H760.559V583.817H762.143V578.457C762.271 577.481 763.263 576.729 764.415 576.729C765.535 576.729 766.319 577.593 766.319 578.825V583.817H767.871V578.553C767.871 576.681 766.591 575.353 764.767 575.353ZM776.426 575.545V576.873C775.802 575.945 774.746 575.353 773.498 575.353C771.322 575.353 769.738 576.969 769.738 579.273C769.738 581.577 771.322 583.209 773.498 583.209C774.746 583.209 775.77 582.649 776.426 581.705V582.905C776.426 584.345 775.354 585.193 773.578 585.193C772.586 585.193 771.594 584.857 770.986 584.281L770.362 585.465C771.146 586.105 772.426 586.569 773.818 586.569C776.266 586.569 778.01 585.065 778.01 582.937V575.545H776.426ZM773.898 581.833C772.426 581.833 771.386 580.777 771.386 579.273C771.386 577.785 772.426 576.729 773.898 576.729C775.37 576.729 776.426 577.785 776.426 579.273C776.426 580.777 775.37 581.833 773.898 581.833ZM787.126 574.633C787.126 574.057 787.51 573.641 787.974 573.641C788.326 573.641 788.646 573.769 788.822 573.945L789.398 572.889C788.95 572.521 788.342 572.297 787.75 572.297C786.47 572.297 785.574 573.225 785.574 574.553V575.545H784.326V576.889H785.574V583.817H787.126V576.889H789.078V575.545H787.126V574.633ZM796.412 575.545V580.905C796.284 581.881 795.292 582.633 794.14 582.633C793.02 582.633 792.236 581.769 792.236 580.537V575.545H790.684V580.809C790.684 582.681 791.964 584.009 793.788 584.009C794.908 584.009 795.916 583.433 796.412 582.617V583.817H797.996V575.545H796.412ZM804.502 575.353C803.382 575.353 802.374 575.929 801.878 576.745V575.545H800.294V583.817H801.878V578.457C802.006 577.481 802.998 576.729 804.15 576.729C805.27 576.729 806.054 577.593 806.054 578.825V583.817H807.606V578.553C807.606 576.681 806.326 575.353 804.502 575.353ZM816.24 572.633V576.969C815.6 575.961 814.576 575.353 813.296 575.353C811.12 575.353 809.488 577.145 809.488 579.673C809.488 582.217 811.12 584.009 813.296 584.009C814.576 584.009 815.6 583.401 816.24 582.377V583.817H817.808V572.633H816.24ZM813.68 582.633C812.16 582.633 811.088 581.401 811.088 579.673C811.088 577.945 812.16 576.729 813.68 576.729C815.168 576.729 816.24 577.945 816.24 579.673C816.24 581.401 815.168 582.633 813.68 582.633ZM823.176 584.009C824.984 584.009 826.312 583.017 826.312 581.449C826.312 579.801 824.856 579.353 823.496 578.953C822.104 578.521 821.592 578.329 821.592 577.689C821.592 577.065 822.232 576.713 823.048 576.713C823.768 576.713 824.6 576.985 825.4 577.481L826.104 576.313C825.208 575.721 824.12 575.353 823.048 575.353C821.288 575.353 820.024 576.345 820.04 577.865C820.04 579.209 820.984 579.753 822.888 580.281C823.912 580.569 824.76 580.809 824.76 581.577C824.76 582.217 824.12 582.649 823.192 582.649C822.216 582.649 821.272 582.281 820.392 581.641L819.64 582.777C820.632 583.577 821.96 584.009 823.176 584.009Z" fill="#F5F5F5"/>
<path d="M711.87 707.075H713.486V697.587H717.102V696.083H708.27V697.587H711.87V707.075ZM722.683 705.859C721.259 705.859 720.251 704.867 720.043 703.491H726.555C726.555 700.531 725.099 698.611 722.571 698.611C720.283 698.611 718.443 700.435 718.443 702.915C718.443 705.459 720.395 707.267 722.699 707.267C723.867 707.267 725.307 706.771 726.043 705.987L725.051 704.963C724.555 705.475 723.547 705.859 722.683 705.859ZM722.635 700.019C724.059 700.019 724.843 700.947 725.019 702.227H720.059C720.315 700.883 721.355 700.019 722.635 700.019ZM731.863 698.611C730.951 698.611 729.911 698.851 728.727 699.443L729.303 700.611C730.023 700.243 730.823 699.923 731.639 699.923C733.287 699.923 733.767 701.027 733.767 702.067V702.323C732.967 702.051 732.087 701.875 731.271 701.875C729.447 701.875 727.959 702.979 727.959 704.627C727.959 706.243 729.255 707.267 731.015 707.267C732.023 707.267 733.159 706.803 733.767 705.939V707.075H735.319V702.067C735.319 700.019 734.087 698.611 731.863 698.611ZM731.319 706.019C730.279 706.019 729.479 705.475 729.479 704.579C729.479 703.683 730.407 703.059 731.511 703.059C732.327 703.059 733.095 703.171 733.767 703.379V704.483C733.495 705.507 732.343 706.019 731.319 706.019ZM746.857 698.611C745.609 698.611 744.553 699.251 744.169 700.275C743.689 699.251 742.713 698.611 741.513 698.611C740.457 698.611 739.593 699.139 739.177 699.955V698.803H737.593V707.075H739.177V701.907C739.177 700.771 740.009 699.987 741.193 699.987C742.233 699.987 742.953 700.835 742.953 702.051V707.075H744.505V701.907C744.505 700.771 745.337 699.987 746.521 699.987C747.561 699.987 748.281 700.835 748.281 702.051V707.075H749.833V701.811C749.833 699.939 748.585 698.611 746.857 698.611Z" fill="#F5F5F5"/>
<path d="M723.314 679.948C733.205 679.948 739.589 674.725 739.589 666.447C739.589 658.613 733.493 654.28 726.534 654.28C723.429 654.28 720.956 655.169 719.058 656.502L719.288 649.557H737.403V641.057H710.259L709.684 662.002L716.182 664.447C718.195 662.947 720.611 662.058 723.429 662.058C727.339 662.058 729.812 663.947 729.812 666.78C729.812 669.503 727.454 671.725 723.314 671.725C719.748 671.725 716.182 670.003 713.249 667.447L707.614 674.17C711.409 677.725 716.527 679.948 723.314 679.948Z" fill="#056ABB"/>
<path d="M753.795 660.336C759.833 660.336 763.917 656.058 763.917 650.502C763.917 645.113 759.948 640.668 753.795 640.668C747.756 640.668 743.731 645.057 743.731 650.502C743.731 656.058 747.814 660.336 753.795 660.336ZM749.022 679.226H755.865L783.47 641.057H776.684L749.022 679.226ZM753.795 654.946C751.725 654.946 750.057 653.224 750.057 650.502C750.057 647.724 751.667 646.057 753.795 646.057C755.98 646.057 757.591 647.779 757.591 650.502C757.591 653.28 755.98 654.946 753.795 654.946ZM778.639 679.837C784.562 679.837 788.703 675.503 788.703 670.003C788.703 664.558 784.735 660.113 778.639 660.113C772.601 660.113 768.517 664.447 768.517 670.003C768.517 675.448 772.543 679.837 778.639 679.837ZM778.639 674.448C776.454 674.448 774.843 672.725 774.843 670.003C774.843 667.169 776.396 665.558 778.639 665.558C780.767 665.558 782.435 667.28 782.435 670.003C782.435 672.781 780.824 674.448 778.639 674.448Z" fill="#056ABB"/>
<path fill-rule="evenodd" clip-rule="evenodd" d="M679.161 316.948L447.273 316.948L447.273 314.239L679.161 314.239L679.161 316.948Z" fill="#47464F"/>
<path fill-rule="evenodd" clip-rule="evenodd" d="M679.161 541.791H511.291V539.082H679.161V541.791Z" fill="#E4E4E4"/>
<path fill-rule="evenodd" clip-rule="evenodd" d="M290.785 608.16V666.403L290.785 666.403H679.161V663.694H293.63V608.16H290.785Z" fill="#055A9E"/>
</svg>
