<svg width="66" height="66" viewBox="0 0 66 66" fill="none" xmlns="http://www.w3.org/2000/svg">
<circle cx="33" cy="33" r="33" fill="#FCA311"/>
<path d="M41.9746 16H31.8259C30.7078 16 29.6757 16.4194 28.8587 17.1743L21.3761 24.0943C21.2471 24.2201 21.1181 24.3459 20.9891 24.5137H20.9461V24.5556C20.344 25.3106 20 26.2332 20 27.1559V44.6027C20 45.9448 21.1181 47.0352 22.4942 47.0352H41.9746C43.3507 47.0352 44.4688 45.9448 44.4688 44.6027V18.4325C44.4688 17.0904 43.3507 16 41.9746 16ZM30.0627 18.3486C30.1918 18.2228 30.3638 18.097 30.5358 18.0131V23.5491C30.5358 24.0524 30.1057 24.4718 29.5897 24.4718H23.3973L30.0627 18.3486ZM42.7917 44.5608C42.7917 44.9801 42.4477 45.3157 42.0176 45.3576C42.0176 45.3576 42.0176 45.3576 41.9746 45.3576H22.4942C22.0642 45.3576 21.7201 45.0221 21.7201 44.6027V27.1559C21.7201 26.8204 21.8061 26.4849 21.9351 26.1493H29.5897C31.0518 26.1493 32.2559 24.975 32.2559 23.5491V17.6776H42.0176C42.4477 17.6776 42.7917 18.0131 42.8347 18.4325V44.5608H42.7917Z" fill="white"/>
<path d="M39.8244 42.2542H24.6443V43.3865H39.8244V42.2542Z" fill="white"/>
<path d="M39.8244 38.9408H24.6443V40.1151H39.8244V38.9408Z" fill="white"/>
<path d="M40.0661 31.5593L39.3158 30.9089L39.323 30.9019L39.3319 30.8922L40.0989 30.0611C40.2937 29.8641 40.3676 29.6032 40.3676 29.3788V26.8205C40.3676 26.647 40.5618 26.4398 40.7706 26.4398H49.3713C49.3739 26.4398 49.3753 26.44 49.3759 26.4401L49.3773 26.4406C49.3782 26.441 49.3803 26.4421 49.383 26.4449C49.3849 26.4469 49.3864 26.4489 49.3873 26.4506V34.8729C49.3873 35.0159 49.2253 35.2116 48.9842 35.2116H40.8136C40.5774 35.2116 40.4106 35.0198 40.4106 34.8309V32.3146C40.4106 31.9628 40.228 31.716 40.0876 31.5791L40.0771 31.5689L40.0661 31.5593Z" fill="#FCA311" stroke="white"/>
<path d="M44.8128 34.1598V33.3629C44.3827 33.3629 43.9527 33.2371 43.5657 33.0274L43.7807 32.4822C44.1247 32.6919 44.5547 32.8177 44.9418 32.8177C45.5008 32.8177 45.8878 32.4822 45.8878 32.0209C45.8878 31.5595 45.5868 31.3079 44.9848 31.0982C44.1677 30.7627 43.6517 30.4272 43.6517 29.7142C43.6947 29.0432 44.2107 28.4979 44.8988 28.456V27.6172H45.3718V28.3721C45.7588 28.3721 46.1029 28.456 46.4469 28.6657L46.2319 29.2109C45.9308 29.0432 45.5868 28.9173 45.1998 28.9593C44.5547 28.9593 44.3397 29.3367 44.3397 29.6303C44.3397 30.0497 44.6408 30.2594 45.3288 30.553C46.1889 30.8885 46.5759 31.3079 46.5759 32.0209C46.5759 32.7338 46.0169 33.321 45.2858 33.3629V34.2017L44.8128 34.1598Z" fill="white"/>
<path d="M37.6743 29.4627C37.6743 29.7143 37.5453 29.9659 37.3302 30.1337C36.5562 30.8886 34.578 31.4338 32.2129 31.4338C29.8477 31.4338 27.8695 30.8886 27.0955 30.1337C26.8805 29.9659 26.7515 29.7143 26.7515 29.4627C26.7515 28.3722 29.2026 27.4915 32.2129 27.4915C35.2231 27.4915 37.6743 28.3722 37.6743 29.4627Z" fill="white"/>
<path d="M37.6743 31.4337C37.6743 32.5241 35.2231 33.4048 32.2129 33.4048C29.2026 33.4048 26.7515 32.5241 26.7515 31.4337C26.7515 31.1821 26.8805 30.9304 27.0955 30.7627C27.8695 31.5176 29.8477 32.0628 32.2129 32.0628C34.578 32.0628 36.5562 31.5176 37.3302 30.7627C37.5453 30.8885 37.6743 31.1401 37.6743 31.4337Z" fill="white"/>
<path d="M37.6743 33.2791C37.6743 34.3695 35.2231 35.2502 32.2129 35.2502C29.2026 35.2502 26.7515 34.3695 26.7515 33.2791C26.7515 33.0275 26.8805 32.7758 27.0955 32.6081C27.8695 33.363 29.8477 33.9082 32.2129 33.9082C34.578 33.9082 36.5562 33.363 37.3302 32.6081C37.5453 32.7758 37.6743 33.0275 37.6743 33.2791Z" fill="white"/>
<path d="M37.6743 35.1664C37.6743 36.2569 35.2231 37.1376 32.2129 37.1376C29.2026 37.1376 26.7515 36.2569 26.7515 35.1664C26.7515 34.9148 26.8805 34.6632 27.0955 34.4535C27.8695 35.2084 29.8477 35.7536 32.2129 35.7536C34.578 35.7536 36.5562 35.2503 37.3302 34.4535C37.5453 34.6212 37.6743 34.8729 37.6743 35.1664Z" fill="white"/>
</svg>
