<svg width="64" height="62" viewBox="0 0 64 62" fill="none" xmlns="http://www.w3.org/2000/svg">
<ellipse cx="32" cy="31" rx="32" ry="31" fill="url(#paint0_linear)"/>
<path d="M22.9102 35.9954C18.1761 35.9954 14.0453 34.9337 12.3745 33.3411C11.8639 32.8988 11.5854 32.3237 11.5854 31.6601C11.5854 29.1828 16.4588 27.3248 22.9567 27.3248C29.4545 27.3248 34.2815 29.227 34.2815 31.6601C34.235 32.2794 33.9566 32.8988 33.446 33.2969C31.7752 34.9337 27.6444 35.9954 22.9102 35.9954ZM22.9102 28.2538C16.7373 28.2538 12.4673 30.0676 12.4673 31.6601C12.5137 32.0582 12.6994 32.4121 13.0243 32.6776C14.5095 34.1374 18.501 35.1106 22.9102 35.1106C27.3195 35.1106 31.311 34.1374 32.7962 32.7218C33.1211 32.4564 33.3068 32.1025 33.3532 31.7043C33.3532 30.0676 29.0368 28.2538 22.9102 28.2538Z" fill="white"/>
<path d="M22.9125 38.8708C16.5539 38.8708 11.5413 36.9686 11.5413 34.5798C11.5877 33.9605 11.8662 33.3411 12.3767 32.943L12.7016 32.6333L13.0265 32.943C14.5117 34.3586 18.5032 35.3318 22.9125 35.3318C27.3217 35.3318 31.3132 34.3586 32.7985 32.943L33.1234 32.6333L33.4482 32.943C33.9588 33.3854 34.2373 33.9605 34.2837 34.624C34.2837 36.9686 29.2711 38.8708 22.9125 38.8708ZM12.7016 33.8277C12.5623 34.0489 12.4695 34.3144 12.4695 34.5798C12.4695 36.2166 16.7395 38.0303 22.9125 38.0303C29.0854 38.0303 33.3554 36.1723 33.3554 34.5798C33.3554 34.3144 33.2626 34.0932 33.0769 33.872C31.2204 35.2876 27.3217 36.2166 22.9125 36.2166C18.5032 36.2166 14.6045 35.2876 12.7016 33.8277Z" fill="white"/>
<path d="M22.9125 42.1001C16.5539 42.1001 11.5413 40.1979 11.5413 37.7649C11.5877 37.1455 11.8662 36.5262 12.3767 36.1281L12.7016 35.8184L13.0265 36.1281C14.5117 37.5437 18.5032 38.5169 22.9125 38.5169C27.3217 38.5169 31.3132 37.5437 32.7985 36.1281L33.1234 35.8184L33.4482 36.1281C33.9588 36.5262 34.2373 37.1455 34.2837 37.7649C34.2837 40.1979 29.2711 42.1001 22.9125 42.1001ZM12.7016 37.0571C12.5623 37.2783 12.4695 37.4994 12.4695 37.7649C12.4695 39.4017 16.7395 41.2154 22.9125 41.2154C29.0854 41.2154 33.3554 39.4017 33.3554 37.7649C33.3554 37.4994 33.2626 37.2783 33.0769 37.0571C31.2204 38.4727 27.3217 39.4017 22.9125 39.4017C18.5032 39.4017 14.6045 38.4727 12.7016 37.0571Z" fill="white"/>
<path d="M22.9125 45.2852C16.5539 45.2852 11.5413 43.4272 11.5413 40.9942C11.5877 40.3748 11.8662 39.7555 12.3767 39.3574L12.7016 39.0035L13.0265 39.3131C14.5117 40.773 18.5032 41.7462 22.9125 41.7462C27.3217 41.7462 31.3132 40.773 32.7985 39.3574L33.1234 39.0477L33.4482 39.3574C33.9588 39.7998 34.2373 40.3748 34.2837 41.0384C34.2837 43.4272 29.2711 45.2852 22.9125 45.2852ZM12.7016 40.2864C12.5623 40.5076 12.4695 40.7287 12.4695 40.9942C12.4695 42.631 16.7395 44.4447 22.9125 44.4447C29.0854 44.4447 33.3554 42.631 33.3554 40.9942C33.3554 40.7287 33.2626 40.5076 33.0769 40.2864C31.2204 41.702 27.3217 42.631 22.9125 42.631C18.5032 42.631 14.6045 41.702 12.7016 40.2864Z" fill="white"/>
<path d="M43.1021 41.5693C39.6212 41.5693 36.6043 40.5076 35.3511 38.8708C34.9798 38.4284 34.7942 37.8534 34.7942 37.2783C34.7942 34.8452 38.4608 32.943 43.1021 32.943C47.7434 32.943 51.4101 34.8452 51.4101 37.2783C51.4101 37.8534 51.2244 38.4284 50.8531 38.8708C49.6 40.5518 46.5831 41.5693 43.1021 41.5693ZM43.1021 33.8277C39.1106 33.8277 35.7225 35.3761 35.7225 37.2783C35.7225 37.6764 35.8617 38.0745 36.1402 38.3842C37.2077 39.7998 39.9925 40.7288 43.1485 40.7288C46.3046 40.7288 49.0894 39.7998 50.1569 38.3842C50.389 38.0745 50.5282 37.6764 50.5746 37.2783C50.4818 35.4203 47.0937 33.8277 43.1021 33.8277Z" fill="white"/>
<path d="M43.1021 44.7987C38.4144 44.7987 34.7942 42.8964 34.7942 40.4634C34.7942 39.8883 35.0263 39.3132 35.3511 38.8708L35.7225 38.3842L36.0938 38.8708C37.1613 40.2864 39.9925 41.2154 43.1021 41.2154C46.2118 41.2154 49.043 40.2864 50.1105 38.8708L50.4818 38.3842L50.8531 38.8708C51.2244 39.3132 51.4101 39.8883 51.4101 40.4634C51.4101 42.8964 47.7434 44.7987 43.1021 44.7987ZM35.8153 39.9325C35.7225 40.1095 35.7225 40.2864 35.7225 40.5076C35.7225 42.3656 39.1106 43.9581 43.1021 43.9581C47.0937 43.9581 50.4818 42.4098 50.4818 40.5076C50.4818 40.3307 50.4354 40.1095 50.389 39.9325C48.9502 41.2597 46.2118 42.1444 43.1021 42.1444C39.9925 42.1444 37.2541 41.2597 35.8153 39.9325Z" fill="white"/>
<path d="M37.1145 29.8906C36.6503 29.8906 36.2326 29.7136 35.9541 29.4482C35.6292 29.1385 35.49 28.7404 35.49 28.3423V24.936C35.49 24.8475 35.4436 24.8033 35.3972 24.759L34.3297 23.83L34.2833 23.7858C33.8655 23.3877 33.8655 22.6799 34.2833 22.2817L35.3508 21.1758C35.3972 21.1315 35.4436 21.0873 35.4436 20.9988V17.5483C35.4436 16.6636 36.1862 16 37.068 16H48.9034C49.2283 16 49.5068 16.1327 49.6924 16.3097C49.9245 16.5308 50.0637 16.7963 50.0637 17.0617V28.3423C50.0637 29.227 49.3211 29.9348 48.4393 29.9348H37.1145V29.8906ZM48.9498 16.7963H37.1145C36.6967 16.7963 36.3254 17.1502 36.3254 17.5483V20.9988C36.3254 21.2643 36.1862 21.5297 36.0005 21.7066L34.933 22.8126C34.8402 22.901 34.7938 23.078 34.933 23.1665L36.0005 24.0955C36.2326 24.3166 36.3718 24.5821 36.3718 24.8917V28.298C36.3718 28.5192 36.4647 28.6962 36.6039 28.8289C36.7432 28.9616 36.9752 29.0501 37.1609 29.0501H48.4393C48.857 29.0501 49.2283 28.6962 49.2283 28.298V17.0617C49.2283 16.9732 49.1819 16.929 49.1355 16.8847C49.089 16.8405 48.9962 16.7963 48.9498 16.7963Z" fill="#FF9F00"/>
<path d="M40.4561 26.8382V25.8207C39.8064 25.8207 39.1566 25.688 38.5996 25.3783L38.8781 24.7148C39.435 25.0244 40.0384 25.1571 40.6418 25.1571C41.5236 25.1571 42.0806 24.759 42.0806 24.1839C42.0806 23.6088 41.6165 23.2992 40.6882 22.9895C39.435 22.5914 38.6924 22.1048 38.6924 21.22C38.6924 20.3353 39.3886 19.7159 40.549 19.5832V18.5215H41.2916V19.4947C41.8485 19.4947 42.4055 19.6275 42.8696 19.8486L42.5447 20.5122C42.0806 20.291 41.5236 20.1583 41.0131 20.1583C40.0848 20.1583 39.7135 20.6449 39.7135 21.0431C39.7135 21.5739 40.1777 21.8393 41.2452 22.1932C42.4983 22.6356 43.1481 23.1665 43.1481 24.0512C43.1481 24.8475 42.4983 25.5995 41.1987 25.7765V26.8382H40.4561Z" fill="white"/>
<path d="M42.8701 26.8382V25.6438H43.1022V25.8208C43.1486 25.7765 43.195 25.7323 43.2878 25.6881C43.3807 25.6438 43.4735 25.6438 43.5663 25.6438C43.6591 25.6438 43.752 25.6438 43.8448 25.6881C43.9376 25.7323 43.984 25.7765 43.984 25.8208C44.1233 25.6881 44.2625 25.5996 44.4482 25.5996C44.5874 25.5996 44.7266 25.6438 44.7731 25.6881C44.8659 25.7323 44.9123 25.865 44.9123 25.9977V26.8382H44.6802V26.0862C44.6802 25.9977 44.6802 25.9535 44.6338 25.9092C44.6338 25.865 44.5874 25.865 44.541 25.8208C44.4946 25.8208 44.4482 25.7765 44.4018 25.7765C44.3089 25.7765 44.2161 25.8208 44.1233 25.865C44.0769 25.9535 44.0304 26.042 44.0304 26.1747V26.8825H43.7984V26.0862C43.7984 25.9977 43.7984 25.9092 43.752 25.865C43.7056 25.8208 43.6591 25.7765 43.5663 25.7765C43.4735 25.7765 43.4271 25.7765 43.3807 25.8208C43.3342 25.865 43.2878 25.9092 43.2414 25.9535C43.195 25.9977 43.195 26.0862 43.195 26.2189V26.8382H42.8701V26.8382Z" fill="white"/>
<path d="M46.1649 26.7055C46.0721 26.7498 45.9793 26.794 45.8864 26.8382C45.7936 26.8825 45.7008 26.8825 45.608 26.8825C45.4223 26.8825 45.3295 26.8382 45.2366 26.794C45.1438 26.7498 45.0974 26.6613 45.0974 26.5286C45.0974 26.4843 45.0974 26.3959 45.1438 26.3516C45.1902 26.3074 45.2366 26.2631 45.2831 26.2189C45.3295 26.1747 45.3759 26.1747 45.4687 26.1747C45.5151 26.1747 45.608 26.1747 45.7008 26.1304C45.8864 26.1304 46.0721 26.0862 46.1649 26.042C46.1649 25.9977 46.1649 25.9977 46.1649 25.9977C46.1649 25.9092 46.1185 25.865 46.0721 25.8208C46.0257 25.7765 45.9328 25.7323 45.7936 25.7323C45.6544 25.7323 45.608 25.7323 45.5151 25.7765C45.4687 25.8208 45.4223 25.865 45.3759 25.9535L45.1438 25.9092C45.1438 25.8208 45.1902 25.7765 45.2366 25.6881C45.2831 25.5996 45.3759 25.5996 45.4687 25.5553C45.5615 25.5111 45.7008 25.5111 45.7936 25.5111C45.9328 25.5111 46.0257 25.5111 46.1185 25.5553C46.2113 25.5996 46.2577 25.5996 46.3042 25.6438C46.3506 25.6881 46.3506 25.7323 46.397 25.7765C46.397 25.8208 46.397 25.865 46.397 25.9535V26.2189C46.397 26.3959 46.397 26.5286 46.397 26.5728C46.397 26.617 46.4434 26.6613 46.4434 26.7055H46.1649C46.2113 26.8382 46.1649 26.7498 46.1649 26.7055ZM46.1649 26.2631C46.0721 26.3074 45.9328 26.3074 45.7472 26.3516C45.6544 26.3516 45.5615 26.3959 45.5151 26.3959C45.4687 26.3959 45.4223 26.4401 45.4223 26.4401C45.3759 26.4843 45.3759 26.4843 45.3759 26.5286C45.3759 26.5728 45.4223 26.617 45.4687 26.6613C45.5151 26.7055 45.608 26.7055 45.7008 26.7055C45.7936 26.7055 45.8864 26.7055 45.9793 26.6613C46.0721 26.617 46.1185 26.5728 46.1649 26.5286C46.2113 26.4843 46.2113 26.3959 46.2113 26.3074V26.2631H46.1649Z" fill="white"/>
<path d="M46.5364 26.8383L47.0933 26.2189L46.5828 25.6439H46.9077L47.1397 25.9093C47.1862 25.9535 47.2326 25.9978 47.2326 26.042C47.279 25.9978 47.3254 25.9535 47.3254 25.9093L47.5575 25.6439H47.8359L47.3254 26.2189L47.8824 26.8383H47.5575L47.2326 26.4844L47.1397 26.3959L46.7684 26.8825H46.5364V26.8383Z" fill="white"/>
<defs>
<linearGradient id="paint0_linear" x1="2.27868e-08" y1="31.5439" x2="64" y2="31.5439" gradientUnits="userSpaceOnUse">
<stop offset="0.373241" stop-color="#385186"/>
<stop offset="1" stop-color="#1F3460"/>
</linearGradient>
</defs>
</svg>
