<svg width="30" height="32" viewBox="0 0 30 32" fill="none" xmlns="http://www.w3.org/2000/svg">
<path d="M21.9746 0H11.8259C10.7078 0 9.67571 0.419394 8.85865 1.1743L1.3761 8.09431C1.24709 8.22013 1.11808 8.34595 0.989073 8.51371H0.94607V8.55564C0.344025 9.31055 0 10.2332 0 11.1559V28.6027C0 29.9448 1.11808 31.0352 2.49418 31.0352H21.9746C23.3507 31.0352 24.4688 29.9448 24.4688 28.6027V2.43249C24.4688 1.09043 23.3507 0 21.9746 0ZM10.0627 2.34861C10.1918 2.22279 10.3638 2.09697 10.5358 2.01309V7.5491C10.5358 8.05237 10.1057 8.47177 9.58971 8.47177H3.39725L10.0627 2.34861ZM22.7917 28.5608C22.7917 28.9801 22.4477 29.3157 22.0176 29.3576C22.0176 29.3576 22.0176 29.3576 21.9746 29.3576H2.49418C2.06415 29.3576 1.72013 29.0221 1.72013 28.6027V11.1559C1.72013 10.8204 1.80613 10.4849 1.93514 10.1493H9.58971C11.0518 10.1493 12.2559 8.97504 12.2559 7.5491V1.67758H22.0176C22.4477 1.67758 22.7917 2.01309 22.8347 2.43249V28.5608H22.7917Z" fill="white"/>
<path d="M19.8244 26.2542H4.64429V27.3865H19.8244V26.2542Z" fill="white"/>
<path d="M19.8244 22.9408H4.64429V24.1151H19.8244V22.9408Z" fill="white"/>
<path d="M20.0661 15.5593L19.3158 14.9089L19.323 14.9019L19.3319 14.8922L20.0989 14.0611C20.2937 13.8641 20.3676 13.6032 20.3676 13.3788V10.8205C20.3676 10.647 20.5618 10.4398 20.7706 10.4398H29.3713C29.3739 10.4398 29.3753 10.44 29.3759 10.4401L29.3773 10.4406C29.3782 10.441 29.3803 10.4421 29.383 10.4449C29.3849 10.4469 29.3864 10.4489 29.3873 10.4506V18.8729C29.3873 19.0159 29.2253 19.2116 28.9842 19.2116H20.8136C20.5774 19.2116 20.4106 19.0198 20.4106 18.8309V16.3146C20.4106 15.9628 20.228 15.716 20.0876 15.5791L20.0771 15.5689L20.0661 15.5593Z" fill="#FCA311" stroke="white"/>
<path d="M24.8128 18.1598V17.3629C24.3827 17.3629 23.9527 17.2371 23.5657 17.0274L23.7807 16.4822C24.1247 16.6919 24.5547 16.8177 24.9418 16.8177C25.5008 16.8177 25.8878 16.4822 25.8878 16.0209C25.8878 15.5595 25.5868 15.3079 24.9848 15.0982C24.1677 14.7627 23.6517 14.4272 23.6517 13.7142C23.6947 13.0432 24.2107 12.4979 24.8988 12.456V11.6172H25.3718V12.3721C25.7588 12.3721 26.1029 12.456 26.4469 12.6657L26.2319 13.2109C25.9308 13.0432 25.5868 12.9173 25.1998 12.9593C24.5547 12.9593 24.3397 13.3367 24.3397 13.6303C24.3397 14.0497 24.6408 14.2594 25.3288 14.553C26.1889 14.8885 26.5759 15.3079 26.5759 16.0209C26.5759 16.7338 26.0169 17.321 25.2858 17.3629V18.2017L24.8128 18.1598Z" fill="white"/>
<path d="M17.6743 13.4627C17.6743 13.7143 17.5453 13.9659 17.3302 14.1337C16.5562 14.8886 14.578 15.4338 12.2129 15.4338C9.84769 15.4338 7.86955 14.8886 7.09549 14.1337C6.88047 13.9659 6.75146 13.7143 6.75146 13.4627C6.75146 12.3722 9.20265 11.4915 12.2129 11.4915C15.2231 11.4915 17.6743 12.3722 17.6743 13.4627Z" fill="white"/>
<path d="M17.6743 15.4337C17.6743 16.5241 15.2231 17.4048 12.2129 17.4048C9.20265 17.4048 6.75146 16.5241 6.75146 15.4337C6.75146 15.1821 6.88047 14.9304 7.09549 14.7627C7.86955 15.5176 9.84769 16.0628 12.2129 16.0628C14.578 16.0628 16.5562 15.5176 17.3302 14.7627C17.5453 14.8885 17.6743 15.1401 17.6743 15.4337Z" fill="white"/>
<path d="M17.6743 17.2791C17.6743 18.3695 15.2231 19.2502 12.2129 19.2502C9.20265 19.2502 6.75146 18.3695 6.75146 17.2791C6.75146 17.0275 6.88047 16.7758 7.09549 16.6081C7.86955 17.363 9.84769 17.9082 12.2129 17.9082C14.578 17.9082 16.5562 17.363 17.3302 16.6081C17.5453 16.7758 17.6743 17.0275 17.6743 17.2791Z" fill="white"/>
<path d="M17.6743 19.1664C17.6743 20.2569 15.2231 21.1376 12.2129 21.1376C9.20265 21.1376 6.75146 20.2569 6.75146 19.1664C6.75146 18.9148 6.88047 18.6632 7.09549 18.4535C7.86955 19.2084 9.84769 19.7536 12.2129 19.7536C14.578 19.7536 16.5562 19.2503 17.3302 18.4535C17.5453 18.6212 17.6743 18.8729 17.6743 19.1664Z" fill="white"/>
</svg>
