<svg width="35" height="33" viewBox="0 0 35 33" fill="none" xmlns="http://www.w3.org/2000/svg">
<path d="M22.8484 0H12.2976C11.1797 0 10.0617 0.419237 9.22322 1.25771L1.39746 8.59436C1.25771 8.73411 1.11797 8.87385 1.04809 9.0136H0.97822V9.08347C0.349364 9.92194 0 10.8303 0 11.8784V30.3947C0 31.7921 1.11797 32.98 2.5853 32.98H22.8484C24.2459 32.98 25.4337 31.7921 25.4337 30.3947V2.58529C25.4337 1.18784 24.2459 0 22.8484 0ZM10.4111 2.51542C10.5508 2.37568 10.6905 2.23593 10.9002 2.16606V8.03538C10.9002 8.59436 10.4809 9.0136 9.92194 9.0136H3.49364L10.4111 2.51542ZM23.617 30.3947C23.617 30.8139 23.2677 31.2332 22.7785 31.2332H2.51542C2.09619 31.2332 1.67695 30.8838 1.67695 30.3947V11.8784C1.67695 11.529 1.74682 11.1797 1.88657 10.8303H9.85207C11.3893 10.8303 12.5771 9.57258 12.5771 8.10525V1.81669H22.7087C23.1279 1.81669 23.5471 2.16606 23.5471 2.65517V30.3947H23.617Z" fill="white"/>
<path d="M23.7568 25.7133C28.1946 25.7133 31.7921 22.1158 31.7921 17.678C31.7921 13.2401 28.1946 9.64258 23.7568 9.64258C19.3189 9.64258 15.7214 13.2401 15.7214 17.678C15.7214 22.1158 19.3189 25.7133 23.7568 25.7133Z" fill="#10213E"/>
<path d="M34.2377 26.7614L30.0453 22.569C32.7704 19.0754 32.1415 13.9747 28.578 11.2496C25.0145 8.52458 19.9836 9.15344 17.2586 12.717C14.5336 16.2805 15.1624 21.3113 18.7259 24.0364C21.5907 26.2723 25.6433 26.2723 28.578 24.0364L32.7704 28.2287C33.1896 28.648 33.8185 28.648 34.2377 28.2287C34.6569 27.8095 34.6569 27.1806 34.2377 26.7614ZM23.7568 11.7387C26.5517 11.7387 28.9274 13.6952 29.5562 16.4202C27.46 15.8612 25.2241 16.3503 23.5472 17.6081C21.3112 19.3549 19.0753 17.9574 17.8875 16.9093C18.2368 13.9048 20.7522 11.7387 23.7568 11.7387ZM17.8875 18.9356C18.6561 19.285 19.4945 19.4247 20.333 19.4946C21.451 19.4946 22.7087 18.4465 23.9664 17.4683C25.9228 15.9311 28.2985 17.3984 29.696 18.4465C29.2767 21.7305 26.3421 24.0364 23.058 23.687C20.4727 23.2678 18.4464 21.4511 17.8875 18.9356Z" fill="white"/>
</svg>
